<svg width="120" height="13" viewBox="0 0 120 13" fill="none" xmlns="http://www.w3.org/2000/svg">
<path d="M8.368 0.719999V8.192C8.368 9.46133 8.02133 10.432 7.328 11.104C6.64533 11.776 5.70133 12.112 4.496 12.112C3.216 12.112 2.192 11.7547 1.424 11.04C0.666667 10.3253 0.288 9.296 0.288 7.952H3.392C3.40267 8.83733 3.728 9.28 4.368 9.28C4.944 9.28 5.232 8.91733 5.232 8.192V0.719999H8.368ZM13.6317 0.719999V7.264C13.6317 7.872 13.7704 8.34133 14.0477 8.672C14.3358 9.00267 14.7678 9.168 15.3438 9.168C15.9197 9.168 16.3517 9.00267 16.6398 8.672C16.9384 8.33067 17.0877 7.86133 17.0877 7.264V0.719999H20.2238V7.264C20.2238 8.29867 20.0051 9.184 19.5677 9.92C19.1304 10.6453 18.5331 11.1947 17.7758 11.568C17.0291 11.9307 16.1971 12.112 15.2797 12.112C14.3624 12.112 13.5411 11.9307 12.8157 11.568C12.1011 11.1947 11.5357 10.6453 11.1197 9.92C10.7144 9.19467 10.5117 8.30933 10.5117 7.264V0.719999H13.6317ZM29.4064 10.16H25.4064L24.7984 12H21.5024L25.6144 0.719999H29.2304L33.3264 12H30.0144L29.4064 10.16ZM28.6224 7.76L27.4064 4.112L26.2064 7.76H28.6224ZM45.1165 12H41.9805L37.8045 5.696V12H34.6685V0.719999H37.8045L41.9805 7.104V0.719999H45.1165V12ZM58.8709 0.927999V12H57.4149V3.744L53.7349 12H52.7109L49.0149 3.728V12H47.5589V0.927999H49.1269L53.2229 10.08L57.3189 0.927999H58.8709ZM63.0841 0.848V7.904C63.0841 8.896 63.3241 9.632 63.8041 10.112C64.2948 10.592 64.9721 10.832 65.8361 10.832C66.6895 10.832 67.3561 10.592 67.8361 10.112C68.3268 9.632 68.5721 8.896 68.5721 7.904V0.848H70.0281V7.888C70.0281 8.816 69.8415 9.6 69.4681 10.24C69.0948 10.8693 68.5881 11.3387 67.9481 11.648C67.3188 11.9573 66.6095 12.112 65.8201 12.112C65.0308 12.112 64.3161 11.9573 63.6761 11.648C63.0468 11.3387 62.5455 10.8693 62.1721 10.24C61.8095 9.6 61.6281 8.816 61.6281 7.888V0.848H63.0841ZM78.649 12L75.993 7.44H74.233V12H72.777V0.848H76.377C77.2197 0.848 77.929 0.992 78.505 1.28C79.0917 1.568 79.529 1.95733 79.817 2.448C80.105 2.93867 80.249 3.49867 80.249 4.128C80.249 4.896 80.025 5.57333 79.577 6.16C79.1397 6.74667 78.4783 7.136 77.593 7.328L80.393 12H78.649ZM74.233 6.272H76.377C77.1663 6.272 77.7583 6.08 78.153 5.696C78.5477 5.30133 78.745 4.77867 78.745 4.128C78.745 3.46667 78.5477 2.95467 78.153 2.592C77.769 2.22933 77.177 2.048 76.377 2.048H74.233V6.272ZM91.2794 4.08C90.97 3.42933 90.522 2.928 89.9354 2.576C89.3487 2.21333 88.666 2.032 87.8874 2.032C87.1087 2.032 86.4047 2.21333 85.7754 2.576C85.1567 2.928 84.666 3.44 84.3034 4.112C83.9514 4.77333 83.7754 5.54133 83.7754 6.416C83.7754 7.29067 83.9514 8.05867 84.3034 8.72C84.666 9.38133 85.1567 9.89333 85.7754 10.256C86.4047 10.608 87.1087 10.784 87.8874 10.784C88.9754 10.784 89.8714 10.4587 90.5754 9.808C91.2794 9.15733 91.69 8.27733 91.8074 7.168H87.3594V5.984H93.3594V7.104C93.274 8.02133 92.986 8.864 92.4954 9.632C92.0047 10.3893 91.3594 10.992 90.5594 11.44C89.7594 11.8773 88.8687 12.096 87.8874 12.096C86.8527 12.096 85.9087 11.856 85.0554 11.376C84.202 10.8853 83.5247 10.208 83.0234 9.344C82.5327 8.48 82.2874 7.504 82.2874 6.416C82.2874 5.328 82.5327 4.352 83.0234 3.488C83.5247 2.61333 84.202 1.936 85.0554 1.456C85.9087 0.965333 86.8527 0.719999 87.8874 0.719999C89.0714 0.719999 90.1167 1.01333 91.0234 1.6C91.9407 2.18667 92.6074 3.01333 93.0234 4.08H91.2794ZM97.0285 0.848V7.904C97.0285 8.896 97.2685 9.632 97.7485 10.112C98.2392 10.592 98.9165 10.832 99.7805 10.832C100.634 10.832 101.3 10.592 101.78 10.112C102.271 9.632 102.516 8.896 102.516 7.904V0.848H103.972V7.888C103.972 8.816 103.786 9.6 103.412 10.24C103.039 10.8693 102.532 11.3387 101.892 11.648C101.263 11.9573 100.554 12.112 99.7645 12.112C98.9752 12.112 98.2605 11.9573 97.6205 11.648C96.9912 11.3387 96.4898 10.8693 96.1165 10.24C95.7538 9.6 95.5725 8.816 95.5725 7.888V0.848H97.0285ZM108.177 0.848V12H106.721V0.848H108.177ZM117.571 9.52H112.707L111.811 12H110.275L114.307 0.912H115.987L120.003 12H118.467L117.571 9.52ZM117.155 8.336L115.139 2.704L113.123 8.336H117.155Z" fill="#00ADB5"/>
</svg>
